<svg xmlns="http://www.w3.org/2000/svg"  viewBox="0 0 48 48" width="48px" height="48px" baseProfile="basic"><linearGradient id="quuD6iWlRsjYK1myOCqMCa" x1="-21.362" x2="68.152" y1="50.19" y2="-1.491" gradientUnits="userSpaceOnUse"><stop offset="0" stop-color="#faf3df"/><stop offset="1" stop-color="#255b70"/></linearGradient><path fill="url(#quuD6iWlRsjYK1myOCqMCa)" d="M38,14H6v-4c0-2.2,1.8-4,4-4h32v4C42,12.2,40.2,14,38,14z M42,24v-4H10c-2.2,0-4,1.8-4,4v4 h32C40.2,28,42,26.2,42,24z M42,38v-4H10c-2.2,0-4,1.8-4,4v4h32C40.2,42,42,40.2,42,38z"/></svg>